<?xml version="1.0" standalone="no"?><!DOCTYPE svg PUBLIC "-//W3C//DTD SVG 1.1//EN" "http://www.w3.org/Graphics/SVG/1.1/DTD/svg11.dtd"><svg t="1618928067189" class="icon" viewBox="0 0 1024 1024" version="1.1" xmlns="http://www.w3.org/2000/svg" p-id="2482" xmlns:xlink="http://www.w3.org/1999/xlink" width="16" height="16"><defs><style type="text/css"></style></defs><path d="M1024 608c0 25.6-6.4 44.8-25.6 57.6l-332.8 332.8c-19.2 19.2-38.4 25.6-64 25.6s-44.8-6.4-57.6-25.6L64 518.4C44.8 499.2 25.6 473.6 19.2 448 6.4 422.4 0 396.8 0 371.2V89.6C0 64 6.4 44.8 25.6 25.6 44.8 12.8 64 0 89.6 0h281.6c25.6 0 51.2 6.4 76.8 19.2 25.6 6.4 44.8 25.6 70.4 44.8l480 480c19.2 19.2 25.6 38.4 25.6 64zM275.2 281.6c32-32 32-89.6 0-121.6-12.8-19.2-38.4-32-57.6-32s-44.8 6.4-64 25.6c-12.8 19.2-25.6 38.4-25.6 64 0 44.8 38.4 83.2 83.2 83.2 25.6 6.4 51.2-6.4 64-19.2z" fill="#b3bac2" p-id="2483"></path></svg>