<?xml version="1.0" standalone="no"?><!DOCTYPE svg PUBLIC "-//W3C//DTD SVG 1.1//EN" "http://www.w3.org/Graphics/SVG/1.1/DTD/svg11.dtd"><svg t="1618846619695" class="icon" viewBox="0 0 1024 1024" version="1.1" xmlns="http://www.w3.org/2000/svg" p-id="3137" width="16" height="16" xmlns:xlink="http://www.w3.org/1999/xlink"><defs><style type="text/css"></style></defs><path d="M602.180267 87.2448C602.180267 39.185067 561.493333 0 511.317333 0c-49.9712 0-90.9312 38.912-90.9312 87.2448 0 4.846933 0.477867 9.762133 1.2288 14.404267-125.405867 41.915733-228.352 170.8032-228.352 322.901333v120.081067s0 172.714667-44.373333 174.148266c-26.4192 0-46.4896 19.6608-46.4896 43.690667a44.373333 44.373333 0 0 0 45.329067 43.554133h727.108266a44.373333 44.373333 0 0 0 45.329067-43.6224 44.373333 44.373333 0 0 0-45.329067-43.6224c-45.2608 0-45.2608-172.919467-45.2608-172.919466V424.823467c0-152.644267-96.256-281.258667-228.352-323.1744 0.477867-4.846933 0.955733-9.762133 0.955734-14.404267z m45.329066 761.856c-0.273067 72.362667-60.484267 130.8672-136.192 130.8672-75.229867 0-136.260267-58.299733-136.260266-130.798933h272.452266z" p-id="3138" fill="#72777c"></path></svg>