<?xml version="1.0" standalone="no"?><!DOCTYPE svg PUBLIC "-//W3C//DTD SVG 1.1//EN" "http://www.w3.org/Graphics/SVG/1.1/DTD/svg11.dtd"><svg t="1618927704620" class="icon" viewBox="0 0 1024 1024" version="1.1" xmlns="http://www.w3.org/2000/svg" p-id="2321" xmlns:xlink="http://www.w3.org/1999/xlink" width="16" height="16"><defs><style type="text/css"></style></defs><path d="M874.496 266.432l66.176-66.176a44.544 44.544 0 0 0 0-62.976L846.208 42.88a44.544 44.544 0 0 0-62.976 0l-66.176 66.112 157.44 157.44z m-220.352-94.528L70.336 755.84a44.544 44.544 0 0 0-11.776 20.8l-40.96 165.632a17.792 17.792 0 0 0 21.376 21.632l167.616-38.976a44.544 44.544 0 0 0 21.312-11.904l583.68-583.552-157.44-157.568z m35.968 551.872a44.544 44.544 0 0 0 0 89.024h267.136a44.544 44.544 0 1 0 0-89.024h-267.136zM512 901.888a44.544 44.544 0 0 0 0 89.024h445.248a44.544 44.544 0 1 0 0-89.024H512z" p-id="2322" fill="#b3bac2"></path></svg>