<?xml version="1.0" standalone="no"?><!DOCTYPE svg PUBLIC "-//W3C//DTD SVG 1.1//EN" "http://www.w3.org/Graphics/SVG/1.1/DTD/svg11.dtd"><svg t="1618927846202" class="icon" viewBox="0 0 1024 1024" version="1.1" xmlns="http://www.w3.org/2000/svg" p-id="5228" xmlns:xlink="http://www.w3.org/1999/xlink" width="16" height="16"><defs><style type="text/css"></style></defs><path d="M707.49 269.964H288.583c-18.618 0-34.91-16.291-34.91-34.91s16.292-34.909 34.91-34.909H707.49c18.618 0 34.909 16.291 34.909 34.91s-16.29 34.909-34.91 34.909z m0 328.145H288.583c-18.618 0-34.91-16.29-34.91-34.909s16.292-34.91 34.91-34.91H707.49c18.618 0 34.909 16.292 34.909 34.91 0 20.945-16.29 34.91-34.91 34.91zM607.419 435.2H288.582c-18.618 0-34.91-16.29-34.91-34.91s16.292-34.908 34.91-34.908h318.836c18.618 0 34.91 16.29 34.91 34.909s-13.964 34.909-34.91 34.909z" p-id="5229" fill="#b3bac2"></path><path d="M730.764 1019.345h-598.11c-44.218 0-81.454-37.236-81.454-81.454V86.109c0-44.218 37.236-81.454 81.455-81.454h758.69c44.219 0 81.455 37.236 81.455 81.454v635.346c0 18.618-16.29 34.909-34.91 34.909s-34.908-16.291-34.908-34.91V86.11c0-6.982-4.655-11.636-11.637-11.636h-758.69c-6.982 0-11.637 4.654-11.637 11.636v849.455c0 6.981 4.655 11.636 11.637 11.636h598.109c18.618 0 34.909 16.29 34.909 34.91s-16.291 37.235-34.91 37.235z" p-id="5230" fill="#b3bac2"></path><path d="M730.764 1019.345c-6.982 0-16.291-2.327-20.946-6.981-13.963-11.637-18.618-34.91-4.654-48.873L912.29 700.509c11.636-13.964 34.909-18.618 48.873-4.654s18.618 34.909 4.654 48.872L758.691 1007.71c-6.982 6.982-18.618 11.636-27.927 11.636z" p-id="5231" fill="#b3bac2"></path><path d="M735.418 1000.727c-18.618 0-34.909-16.29-34.909-34.909l-2.327-193.163c0-44.219 34.909-79.128 76.8-81.455l134.982-2.327c18.618 0 34.909 16.29 34.909 34.909s-13.964 34.909-34.91 34.909l-134.981 2.327c-4.655 0-9.31 4.655-9.31 9.31l4.655 193.163c0 20.945-13.963 37.236-34.909 37.236z" p-id="5232" fill="#b3bac2"></path></svg>