<?xml version="1.0" standalone="no"?><!DOCTYPE svg PUBLIC "-//W3C//DTD SVG 1.1//EN" "http://www.w3.org/Graphics/SVG/1.1/DTD/svg11.dtd"><svg t="1619528002185" class="icon" viewBox="0 0 1024 1024" version="1.1" xmlns="http://www.w3.org/2000/svg" p-id="4237" xmlns:xlink="http://www.w3.org/1999/xlink" width="16" height="16"><defs><style type="text/css"></style></defs><path d="M502.38738312 441.59176625C502.43242812 441.5217275 502.49762656 441.45999781 502.5414875 441.38877125 502.36841562 440.56254875 502.22735 439.84079 502.1645225 439.32677469 502.24276063 440.07821 502.32336969 440.83439562 502.38738312 441.59176625L502.38738312 441.59176625ZM663.04932125 617.26749688C663.05524812 617.26749688 663.05524812 617.26037469 663.05524812 617.25681312 663.03391063 617.24612938 662.96041344 617.24612938 662.94500281 617.22238719 662.96871219 617.24612938 663.02561281 617.24612938 663.04932125 617.26749688L663.04932125 617.26749688ZM667.16393375 617.7827C666.16936156 617.62244094 663.93483406 617.91328062 663.05050625 617.26749688 662.50521125 619.15261625 663.32789656 619.86369031 667.16393375 617.7827L667.16393375 617.7827ZM510.66995281 93.83722438C279.63876969 93.83722438 92.35928188 281.38160562 92.35928188 512.73719094 92.35928188 744.08802687 279.63876969 931.64071812 510.66995281 931.64071812 741.69283625 931.64071812 928.97943781 744.08921375 928.97943781 512.73719094 928.97943781 281.38160562 741.69283625 93.83722438 510.66995281 93.83722438L510.66995281 93.83722438ZM777.86136219 257.47454938C763.44777031 257.91259063 753.41432656 257.93989344 741.83508781 265.94215063 737.1692525 269.17225719 734.00179438 273.44938719 728.08059312 275.11251781 722.77107031 276.60945313 717.0407225 275.297705 711.77387562 277.08666969 692.76794469 283.54569406 695.77892562 324.31197875 670.73562125 318.15447875 658.97264187 315.26388406 650.68177438 301.34273375 644.76057219 292.25190313 639.545885 284.25439344 630.0482525 277.63985938 636.46259281 267.63021125 633.53696094 268.38164656 630.41692062 267.52574563 627.53515156 268.07418687 631.54781656 259.25282844 645.00239938 260.02325844 647.24048281 255.51464375 652.81554031 244.214615 631.89159031 243.03463437 625.96683219 241.46766031 633.10902219 233.84527531 636.72338562 244.03180063 643.77311188 242.30219281 650.54663562 240.63194 640.19786844 231.69780687 636.13541469 230.69470438 634.67615563 230.33263906 610.82301781 237.29618188 624.62967219 224.92301281 607.58562125 214.04321938 590.54986719 203.16698656 573.50225938 192.27888219 570.63352906 204.38376594 596.18656625 211.26302469 604.53314938 215.52828313 603.23747938 220.52717187 595.47294031 227.8052975 589.52802969 225.67444906 583.92807875 223.66349656 586.20172531 214.37204562 577.74608375 215.30510844 571.70871031 229.36158875 590.51074813 225.25302688 592.25806531 233.86664281 594.24246781 243.68160594 585.1502525 239.52199813 581.65324625 239.35224312 580.81989313 239.30950719 574.30242219 232.55370687 573.95035063 237.667745 573.52833781 243.74096094 584.34534875 241.37269156 585.1087625 247.50644937 572.50887313 248.01690406 566.07438219 243.46199188 555.81689187 236.63733969 543.8452775 228.68138 537.70240063 229.39838938 523.03512781 229.39838938 527.42120375 227.59399344 533.46450406 226.25612938 537.21519125 223.3501025 539.26360719 221.76294594 547.30434969 213.93756688 547.834235 212.19015219 550.10669563 204.65205219 547.71095094 205.22423469 540.50830344 200.28232719 534.10581969 195.89598406 526.34128062 188.02193375 518.58266938 186.47039 490.47503938 180.85183438 509.91365094 211.88387938 488.57717281 216.16338406 488.94228312 216.18237687 489.33702969 216.19899687 489.65116812 216.19899687L488.42899437 216.19899687C488.48352406 216.19543531 488.527385 216.17525469 488.57717281 216.16338406 483.64106 215.986505 474.38999656 214.78397 471.20949969 217.39559562 468.96430344 219.23085688 468.77582094 226.60513719 466.26627406 229.27493094 461.79959 234.04352094 455.14105344 234.9955775 449.81137906 238.43342562 444.60973156 241.79292594 433.13955125 250.41010344 430.08470938 256.25658219 418.82435 277.79893062 455.45519094 284.48587906 469.34363938 290.78345656 475.61809813 293.62894156 493.95544906 297.52501156 497.37066031 302.27935719 501.95114562 308.66359438 493.42319375 314.65015156 502.98720781 319.13858656 506.04205062 320.56785781 512.34140281 320.85988531 514.97304781 317.898065 519.24887844 313.07249281 513.23521344 311.98391937 512.21100594 306.41047344 510.22778844 295.68144219 513.49600812 299.94432688 518.88495219 295.95803656 529.86673719 287.83825625 527.39393938 287.34086 523.44291406 274.40262969 521.607875 268.38045969 514.68617469 251.56871469 520.77452187 247.12301562 528.71331781 241.32283344 545.64593937 250.26646344 551.73310062 251.01433812 558.817205 251.88329656 562.84054062 261.71369187 566.70147125 265.73440906 569.26554687 268.40420094 573.85196 274.069055 578.33168375 273.45650937 585.4430525 272.48071156 582.46763375 266.25554563 586.59173094 263.38394563 597.65649406 255.69864406 600.57145719 266.13802344 604.98123969 276.57858875 609.12904531 286.38524281 613.05517531 290.02489906 620.43800656 296.31535437 623.86744344 299.24393656 638.89508563 309.69399969 637.47731656 316.13521719 636.51593563 320.47407688 619.34978563 327.05537281 614.75863156 328.51194688 597.97892938 333.8337275 566.50113406 319.79861562 563.12030094 346.44669125 569.63065906 344.01906687 588.14937969 328.86926562 593.70309969 336.05004875 596.23516906 339.30745719 591.69380281 344.05230594 592.76305719 347.28716 595.93170031 356.98697375 603.40225344 353.60729281 611.23554687 352.04031781 610.70210469 352.37389438 610.15443875 352.66473406 609.57595062 352.92352156 620.27915938 347.41536688 619.16723094 348.56329531 624.07844844 339.62916219 625.68233 336.71007687 628.06740688 329.64563094 630.32682781 327.55632969 638.1067775 320.38979281 639.30524281 325.32457812 644.12518438 330.85410031 645.38766312 332.31186219 657.30356187 349.49398344 653.06210844 348.63689563 639.20092531 345.85314031 625.89215 346.22589031 614.39707719 353.81622312 607.77410281 358.19781875 601.50912875 364.10840187 593.59878219 367.01799031 591.70328656 367.7112575 577.66310281 369.04318625 579.3227 366.64642719 581.74571 363.15041 590.08399437 360.83674719 593.37473656 357.06294875 584.25525687 353.30220875 576.649565 361.60599031 569.48366563 366.46123906 561.87915969 370.06409469 560.11169 376.77715906 553.63689406 382.664 550.81083969 385.23051594 545.46575469 385.66736937 542.69067313 389.04467563 539.99857062 392.32226562 539.66428062 397.47547812 537.11324469 400.58687375 535.32443656 402.76520656 530.73683938 401.44989688 528.86860813 404.73223438 526.43492938 409.02242281 531.09602375 413.00396469 530.07418625 416.09399281 528.20239906 421.70898688 517.53830938 426.47282938 513.43673563 430.51610094 513.9844025 429.98902719 514.52851344 429.44533344 515.06432562 428.89570625 510.954455 433.21438344 505.75399156 436.38988344 502.54385937 441.38758438 504.01734313 448.44253438 508.66302687 465.26852469 507.36735594 469.1408525 503.09271125 481.87727562 494.78998906 462.2129225 491.42219375 457.13331125 479.85243875 439.6757825 456.72833844 451.35805813 440.93135562 452.80632312 420.72932844 454.65701562 400.94101625 480.91334844 413.40339875 502.22539906 419.38505656 512.44635031 429.44813562 516.40415 440.99062625 514.03825531 451.26471125 511.932335 454.34918938 497.53990531 464.02226281 497.27755531 481.80009313 496.80271438 464.41463938 514.72202656 462.87595719 521.29857313 461.45344531 527.39078281 465.09270219 527.95346937 471.35412125 529.46346406 475.9784675 530.57103031 482.52675969 527.48219 486.53586969 530.12586687 489.06082625 531.79612063 488.93872812 540.9356225 492.41321 538.05333781 485.57567469 543.72887469 487.1724425 557.18705562 494.18305062 562.05061344 501.9558875 567.45074281 511.10737438 562.45066719 519.2453225 564.52334844 534.60962562 568.44909594 527.27539625 563.35049094 540.76791219 555.19391 549.87435312 549.69762594 551.36798938 556.22906375 557.59147531 556.25517969 561.82700094 556.27179875 564.5179175 550.15584688 571.60083688 551.93531375 577.37385969 553.39307563 579.65461812 557.85539375 586.54787 558.8822375 589.37392438 559.29891031 592.2912575 557.81740625 594.986915 558.11537 607.73498469 559.53395656 617.49578 567.6905375 627.54226344 575.0671925 635.82127719 581.13684688 641.30505688 579.90700906 650.97575937 582.67533219 658.04089719 584.69221906 671.07702406 594.93097812 670.40963 603.92090469 670.28990187 605.52942875 664.11383375 613.61359625 663.05880406 617.25443937 664.86657875 618.50801938 677.44038969 615.69458656 681.11995156 615.42986281 679.91081656 616.83895344 671.34848656 622.86349906 671.34848656 619.66425781 671.34848656 621.30483219 677.40719844 624.67145562 678.88305219 625.71729219 683.34855219 611.19665562 690.68396656 620.54033938 699.51301719 624.13725875 707.0191325 627.19879625 716.25834125 627.36261688 724.2647075 629.27266531 731.06075281 630.89306 746.04809094 635.48833344 751.08377938 641.04990875 757.14604625 647.74397938 752.95556656 658.62021219 748.46991594 665.28104375 742.6020575 674.010995 733.75522625 677.3693075 730.09463094 687.64130469 727.20219219 695.78245344 729.37389219 704.00788719 727.72140875 713.03342656 725.48688125 725.251085 723.69570312 720.96801969 715.83870125 728.4230225 709.22758156 734.70160813 715.72845594 733.61066094 706.72751844 737.61238344 697.68627688 741.63547344 689.7249575 740.43887469 683.46590844 750.37254781 683.71603344 749.74813156 683.9199275 749.12134156 684.09418437 748.46843469 681.45305562 752.16982063 680.13249125 759.74946969 678.88068219 762.23644906 675.72507875 768.58269875 671.372195 772.58560906 666.38036656 777.87058906 664.46827625 779.89459813 646.88248437 803.95360344 645.86657469 802.01981375 644.56023594 799.50671844 630.69431 804.54478063 630.03402781 800.95973187 630.58525156 803.97259812 629.90244594 802.96237344 633.3461075 804.69910437 630.15731281 824.47148281 621.80598781 827.4214325 602.41716406 827.62086594 604.08505906 837.12362094 595.39114531 835.22781781 591.351215 840.3371075 588.98866063 843.32029625 587.86132156 851.70954969 586.22424781 855.5735675 585.20122625 858.000005 577.6322825 867.72356094 577.6322825 869.65022844 577.62398469 871.42494688 580.1785775 874.0247 582.56958125 876.51880344 568.90043656 879.22539688 554.96338625 881.11407687 540.80821625 882.26437906 543.45764281 878.92149875 544.0954025 875.98341969 535.65517156 875.58099219 537.9134075 869.43536281 543.2170025 865.92984875 545.46456875 859.97653063 546.53026719 857.16784531 545.64831031 856.05790437 546.55041875 853.27415 549.63845375 843.66811719 548.29892188 847.29234031 546.55753156 839.83021438 542.47848125 822.34063437 548.00849281 817.55779812 552.76916281 801.54497375 557.65667375 785.08935875 557.20146969 763.75831437 560.33336469 746.03250125 561.81870312 737.55065375 564.25238188 719.90081469 561.31015531 711.88312437 557.99570469 702.85283656 543.41615375 695.74090531 536.73864969 689.66887625 527.28487906 681.04338969 522.25986031 671.72344813 515.23976844 661.06208094 511.67637875 655.64770719 507.61511 650.33423656 504.8352875 644.44739562 498.88919094 631.85936094 504.8388425 639.35116437 505.8393425 631.9222775 506.7983525 624.74268125 504.98583594 618.32639375 507.83204281 610.79185344 510.98053344 602.461955 518.83990719 597.27075687 521.42176344 588.87081969 523.74519875 581.39326063 521.97772813 571.99378437 514.30683875 569.49968188 510.03219313 568.10246188 505.31538406 571.32188375 501.01940094 570.61555812 495.03063031 569.64332094 488.24999469 565.16557063 483.54978219 561.58526938 476.98845031 556.57925844 474.52869219 548.444045 467.5417925 543.69682344 461.69171656 539.74139656 457.53087125 542.10848 451.27300906 540.25778656 444.74724031 538.33230688 440.71797875 530.26950687 435.45350188 527.74454 427.553825 523.96005781 423.10255156 529.39342531 414.76308125 528.295355 407.67067906 527.36585375 396.85366906 519.49417812 390.22713875 516.52048531 376.75240437 510.48050844 368.54688781 503.81374156 363.15794188 490.1193275 358.54426438 478.37532219 351.81697344 472.896845 343.89595906 463.11630781 335.86944125 453.20519 333.35633844 444.76014312 320.98523469 442.11884 319.53308844 441.80307031 324.01281219 452.52260562 324.47512812 453.38206719 328.89558125 461.57901031 335.53396531 469.06606531 340.8731225 476.69794719 348.72894031 487.93980781 345.3801125 490.04928875 337.38915687 479.17899125 328.25070969 466.74290562 317.64707656 454.37804656 309.72013438 441.2083325 306.72337719 436.23081125 307.29830938 433.01257719 302.35626969 428.28672219 297.58018906 423.72112531 291.33062375 421.496495 286.52135187 417.15407562 269.21769219 401.57098063 266.07157156 380.76819781 268.04530625 358.55394969 268.68543594 351.31262469 271.29811438 345.52075156 270.14588094 338.56076938 269.19516969 332.78076781 265.78825625 328.00268094 261.53139125 323.74454375 260.15985313 321.55671406 256.71619156 316.16845625 256.51704031 315.82538375 252.58853937 309.29038438 249.53251156 302.86459906 243.29243094 297.50483187 239.71244469 294.41599063 230.44834344 287.19722094 221.72598031 281.15012 260.913785 232.20588688 312.19174719 193.41850062 371.01612969 169.33575312 371.48318656 172.29757438 372.75396312 175.25345938 374.6577575 178.08351125 379.49429375 185.26666812 384.10322937 184.69804625 393.54395938 186.68644344 392.5327925 197.66001781 379.72426625 197.74667562 371.05406281 196.55719906 360.70529656 195.13386313 349.81716031 191.6912675 340.851785 200.77378813 345.80449437 203.75578906 359.394215 215.36683813 357.58881125 203.23465062 367.50252781 202.73725531 377.08550937 202.44166625 386.78466312 203.62876906 390.67048812 204.10598375 403.69120437 208.48164406 407.22021781 206.48612469 408.70081437 205.64803062 410.27861563 198.3319175 411.84693406 196.08117219 409.08133531 196.09660344 406.11777125 194.69938438 403.36402719 194.96410812 409.78666438 186.72917844 416.18559219 193.18939063 424.35910344 196.9762475 415.36053594 202.45235094 420.69732312 215.57695531 429.4955525 204.91321344 436.72190844 196.14408781 427.72689687 189.78715438 418.55051656 184.67786562 427.80395 173.08818406 433.50940438 172.04234656 442.21635688 185.12302813 443.65072156 177.05548062 450.15278188 180.28558625 456.94882813 180.88151188L456.94882813 178.86343719C453.95681375 178.93585063 450.76327531 177.21217812 447.80208312 177.52319937 454.72496844 166.46296531 450.30688812 163.93562469 460.20400625 160.32564594 468.0847175 157.45167031 490.56868813 160.12739937 493.33902781 152.70682156 477.60368562 155.77073375 458.59301375 156.50317625 444.39635469 163.66852625 438.27600125 166.75736656 430.98444781 176.5106 424.87120625 170.17147344 418.60504625 163.66852625 429.35211594 153.21134094 434.85130625 150.02397031L433.53548375 150.02397031C458.43179469 144.72118438 484.21717625 141.8745125 510.67113781 141.8745125 527.7649775 141.8745125 544.56364531 143.14115094 561.0529175 145.39664469 555.34746312 148.39764031 559.56639406 150.42402406 555.41029156 153.49031 547.47386563 159.33678969 533.38508094 164.21459375 523.93960813 167.90885563 535.94559969 167.87680344 565.00868375 179.1827675 570.60152281 162.31760375 566.72518063 161.72167719 562.85950625 161.12337781 558.98672094 160.52745313 566.22137375 155.72324844 574.2917525 151.83548844 582.76399062 148.98525594 659.22039594 164.15286406 727.22590063 202.98773375 778.95906594 257.48167156 778.58565781 257.47454938 778.21817469 257.4650525 777.86136219 257.47454938L777.86136219 257.47454938ZM845.56221219 404.54942094C846.25094469 403.07741375 847.85956813 402.59188906 848.52340625 401.37748344 849.92102281 398.82402594 849.60925625 397.09204344 851.32930906 394.90065219 853.17146094 392.53119594 855.65729844 391.9507025 857.71282719 390.10001 858.54262438 389.35450906 859.00375437 388.6648025 859.38427719 387.96203844 865.55441844 405.20588844 870.47274969 423.03498031 874.04917906 441.34010094 873.94130469 441.47186844 873.88084906 441.67011406 873.74571031 441.780515 872.84597188 442.49159 866.98404125 443.36411 865.78083406 443.40565813 861.53463969 443.56947969 858.38140625 440.74892375 855.33249125 438.09337531 852.2314175 435.39627875 848.58030688 431.78748781 846.37659969 428.29503125 844.02353 424.56396875 845.47567625 420.73200219 845.64519219 416.47030437 845.78507188 412.88762937 844.04368156 407.77833969 845.56221219 404.54942094L845.56221219 404.54942094ZM850.34896156 596.61785C843.16409562 590.36656906 834.68711656 581.9868125 829.57793187 573.88958656 824.12141656 565.25579 827.48446906 556.371515 827.8839575 546.48413937 828.2146925 538.16848625 824.15816562 526.33544937 827.68717812 518.84839344 829.30765438 515.43072594 833.02040844 514.2994175 834.54960781 511.49904313 837.79885906 505.56827844 837.07812031 501.55943375 841.06470688 496.46082875 845.34172344 490.98472531 851.09340969 489.6361775 855.85763563 485.34242656 860.84946312 480.840935 860.7107675 477.28793656 863.87111375 471.52099344 866.18269344 467.30084375 871.61668531 460.26726219 876.76143312 456.58843156 879.55311031 474.90186125 881.00762844 493.65689281 881.00762844 512.73600406 881.00762844 545.74694937 876.62155344 577.74173375 868.49783 608.22652531 861.57257281 606.43756156 855.87660125 601.43867281 850.34896156 596.61785L850.34896156 596.61785Z" fill="#a7a7a7" p-id="4238"></path></svg>