<?xml version="1.0" standalone="no"?><!DOCTYPE svg PUBLIC "-//W3C//DTD SVG 1.1//EN" "http://www.w3.org/Graphics/SVG/1.1/DTD/svg11.dtd"><svg t="1619416331074" class="icon" viewBox="0 0 1037 1024" version="1.1" xmlns="http://www.w3.org/2000/svg" p-id="4931" xmlns:xlink="http://www.w3.org/1999/xlink" width="16.203125" height="16"><defs><style type="text/css"></style></defs><path d="M976.658556 647.154769v192.848334c0 79.777353-64.585999 144.636251-143.999487 144.636251H160.646301a144.499801 144.499801 0 0 1-143.999487-144.636251V165.033934A144.499801 144.499801 0 0 1 160.646301 20.397684h672.012768a144.454318 144.454318 0 0 1 143.999487 144.63625v482.120835z m-96.014819 192.848334v-172.881254l-191.984156-192.848334L276.537234 888.215187h556.121835c26.471163 0 47.984668-21.604471 47.984668-48.212084z m-47.984668-723.181252H160.646301a48.212084 48.212084 0 0 0-47.984668 48.212083v674.969169c0 20.694809 13.190098 38.02387 31.474303 44.846334L654.729191 372.027511a47.757253 47.757253 0 0 1 67.860781 0l158.053765 158.736011V165.033934c0-26.562129-21.513505-48.212084-47.984668-48.212083zM328.660864 454.306435a120.393759 120.393759 0 0 1-119.984412-120.530209 120.393759 120.393759 0 0 1 119.984412-120.530208 120.393759 120.393759 0 0 1 119.984411 120.530208 120.393759 120.393759 0 0 1-119.984411 120.530209z m0-144.63625a24.106042 24.106042 0 0 0 0 48.212083 24.106042 24.106042 0 0 0 0-48.212083z" fill="#a3a9b2" p-id="4932"></path></svg>