<?xml version="1.0" standalone="no"?><!DOCTYPE svg PUBLIC "-//W3C//DTD SVG 1.1//EN" "http://www.w3.org/Graphics/SVG/1.1/DTD/svg11.dtd"><svg t="1618928397717" class="icon" viewBox="0 0 1024 1024" version="1.1" xmlns="http://www.w3.org/2000/svg" p-id="14976" xmlns:xlink="http://www.w3.org/1999/xlink" width="16" height="16"><defs><style type="text/css"></style></defs><path d="M512 810.667H256c-25.6 0-42.667-17.067-42.667-42.667V256c0-25.6 17.067-42.667 42.667-42.667h256c25.6 0 42.667-17.066 42.667-42.666S537.6 128 512 128H256c-72.533 0-128 55.467-128 128v512c0 72.533 55.467 128 128 128h256c25.6 0 42.667-17.067 42.667-42.667S537.6 810.667 512 810.667z" p-id="14977" fill="#b3bac2"></path><path d="M896 512c0-4.267 0-12.8-4.267-17.067v-4.266c0-4.267-4.266-8.534-8.533-12.8L704 298.667c-17.067-17.067-42.667-17.067-59.733 0s-17.067 42.666 0 59.733l106.666 106.667H426.667c-21.334 0-42.667 21.333-42.667 42.666s21.333 42.667 42.667 42.667h324.266L644.267 657.067c-17.067 17.066-17.067 42.666 0 59.733 17.066 17.067 42.666 17.067 59.733 0l179.2-179.2c4.267-4.267 4.267-8.533 8.533-12.8v-4.267C896 524.8 896 516.267 896 512z" p-id="14978" fill="#b3bac2"></path></svg>