<?xml version="1.0" standalone="no"?><!DOCTYPE svg PUBLIC "-//W3C//DTD SVG 1.1//EN" "http://www.w3.org/Graphics/SVG/1.1/DTD/svg11.dtd"><svg t="1618928016303" class="icon" viewBox="0 0 1024 1024" version="1.1" xmlns="http://www.w3.org/2000/svg" p-id="1493" xmlns:xlink="http://www.w3.org/1999/xlink" width="16" height="16"><defs><style type="text/css"></style></defs><path d="M786.16 1001.726c-11.025 0-23.888-3.675-34.913-9.188L512.352 873.093 271.626 992.538c-23.889 12.862-55.128 11.025-77.18-5.514-22.05-16.548-34.915-45.951-29.402-73.503l49.615-257.264L25.39 479.84c-20.214-20.22-27.564-51.453-20.214-77.18 9.188-27.567 31.239-47.778 60.64-51.453l262.778-47.778L446.199 64.54c12.87-25.726 38.595-42.267 66.154-42.267 27.565 0 55.134 16.541 66.16 42.267L696.12 303.428l262.777 45.943c27.563 3.676 51.452 23.893 58.802 51.456 9.189 27.564 1.839 56.966-18.375 77.18l-189.273 178.25 47.777 257.264c5.513 29.4-7.35 56.967-29.402 73.503-11.025 9.19-25.725 14.702-42.265 14.702z" fill="#b3bac2" p-id="1494"></path></svg>