<?xml version="1.0" standalone="no"?><!DOCTYPE svg PUBLIC "-//W3C//DTD SVG 1.1//EN" "http://www.w3.org/Graphics/SVG/1.1/DTD/svg11.dtd"><svg t="1618927884074" class="icon" viewBox="0 0 1024 1024" version="1.1" xmlns="http://www.w3.org/2000/svg" p-id="6768" xmlns:xlink="http://www.w3.org/1999/xlink" width="16" height="16"><defs><style type="text/css"></style></defs><path d="M791.804607 741.790957l-68.283904-41.076942c-31.741955-18.137974-104.559853-53.346925-100.02586-118.163834a97.358863 97.358863 0 0 1 18.137975-54.679923c18.404974-26.673962 36.542949-50.146929 50.145929-72.819898a313.14756 313.14756 0 0 0 45.611936-181.913744C737.390683 141.102802 645.366812 0 509.600003 0h-9.069987C363.962208 0 271.938338 141.102802 271.938338 273.136616a368.094482 368.094482 0 0 0 21.872969 138.969804 26.673962 26.673962 0 0 1 1.866997 3.999995c8.801988 17.604975 17.870975 35.20995 30.940957 57.08192 4.534994 4.534994 4.534994 9.335987 9.068987 13.86998 0 4.534994 4.534994 4.534994 4.534994 9.069987l26.672962 40.809943a111.228844 111.228844 0 0 1 18.137975 59.214917c0 59.215917-68.283904 90.956872-100.292859 113.896839-26.672962 13.602981-49.87993 31.740955-72.817898 40.809943C100.159579 819.144848 31.875675 853.5538 31.875675 896.498739v40.276944A87.489877 87.489877 0 0 0 119.098553 1023.99856H892.629465a98.958861 98.958861 0 0 0 99.49286-98.959861v-14.936979c0-26.672962-5.867992-56.54692-200.318718-168.309763z" p-id="6769" fill="#b3bac2"></path></svg>