<?xml version="1.0" standalone="no"?><!DOCTYPE svg PUBLIC "-//W3C//DTD SVG 1.1//EN" "http://www.w3.org/Graphics/SVG/1.1/DTD/svg11.dtd"><svg t="1618928151658" class="icon" viewBox="0 0 1024 1024" version="1.1" xmlns="http://www.w3.org/2000/svg" p-id="4157" xmlns:xlink="http://www.w3.org/1999/xlink" width="16" height="16"><defs><style type="text/css"></style></defs><path d="M936.77037 333.748148A179.693037 179.693037 0 0 0 682.666667 79.644444l-70.162963 70.162963 254.103703 254.103704 70.162963-70.162963z m-185.837037-185.837037c30.340741-30.340741 81.540741-30.340741 111.881482 0 30.340741 30.340741 30.340741 81.540741 0 111.881482l-111.881482-111.881482zM286.340741 403.911111l-142.222222-140.325926 113.777777-113.777778 43.614815 45.511112-60.681481 60.681481 70.162963 70.162963 60.681481-60.681482 28.444445 26.548149 70.162962-70.162963L259.792593 11.377778 5.688889 265.481481l208.592592 210.488889zM809.718519 559.407407l-72.05926 70.162963 22.755556 22.755556-62.577778 60.681481 70.162963 70.162963 62.577778-60.681481 45.511111 45.511111-111.881482 113.777778-140.325926-138.42963-70.162962 70.162963L764.207407 1024l254.103704-254.103704zM83.437037 940.562963h254.103704L81.540741 686.459259zM593.540741 170.666667L115.674074 648.533333l254.103704 254.103704 477.866666-477.866667L593.540741 170.666667zM367.881481 760.414815l-113.777777-113.777778 337.54074-337.540741 113.777778 113.777778-337.540741 337.540741z" p-id="4158" fill="#b3bac2"></path><path d="M294.343111 643.185778l56.32-56.32 77.748148 77.786074-56.32 56.32z" p-id="4159" fill="#b3bac2"></path></svg>