<?xml version="1.0" standalone="no"?><!DOCTYPE svg PUBLIC "-//W3C//DTD SVG 1.1//EN" "http://www.w3.org/Graphics/SVG/1.1/DTD/svg11.dtd"><svg t="1619156732541" class="icon" viewBox="0 0 1024 1024" version="1.1" xmlns="http://www.w3.org/2000/svg" p-id="1307" xmlns:xlink="http://www.w3.org/1999/xlink" width="16" height="16"><defs><style type="text/css"></style></defs><path d="M938.6 175.7c25.4-25.4 25.8-67.4 0.1-93-25.8-25.8-67.3-25.6-93 0.1L511.2 417.3 176.7 82.8c-25.4-25.4-67.4-25.8-93-0.1-25.8 25.8-25.6 67.3 0.1 93l334.5 334.5L83.8 844.7c-25.4 25.4-25.8 67.4-0.1 93 25.8 25.8 67.3 25.6 93-0.1l334.5-334.5 334.5 334.5c25.4 25.4 67.4 25.8 93 0.1 25.8-25.8 25.6-67.3-0.1-93L604.1 510.2l334.5-334.5z" p-id="1308" fill="#333333"></path></svg>